<svg width="24" height="24" viewBox="0 0 24 24" fill="none" xmlns="http://www.w3.org/2000/svg">
<path d="M20.7109 10C21.0755 10 21.375 10.1172 21.6094 10.3516C21.8438 10.5859 21.9609 10.8854 21.9609 11.25L22 12.8906C21.974 13.4115 21.7396 13.7891 21.2969 14.0234L11.6875 18.6328L9.07031 21.25C8.21094 22.0573 7.23438 22.4609 6.14062 22.4609C5.04688 22.4609 4.07031 22.0573 3.21094 21.25C2.40365 20.4167 2 19.4531 2 18.3594C2 17.2656 2.40365 16.2891 3.21094 15.4297L5.82812 12.8125L10.4375 3.20312C10.6719 2.76042 11.0495 2.52604 11.5703 2.5H13.2109C13.5755 2.5 13.875 2.61719 14.1094 2.85156C14.3438 3.08594 14.4609 3.38542 14.4609 3.75V6.17188L17.3125 5.74219C17.7292 5.71615 18.0807 5.83333 18.3672 6.09375C18.6536 6.38021 18.7708 6.73177 18.7188 7.14844L18.2891 10H20.7109ZM17.5078 6.99219L14.3828 7.42188L13.4844 11.0156L17.0781 10.1172L17.5078 6.99219ZM11.5703 3.75L9.26562 8.59375L13.25 6.48438V3.75H11.5703ZM12.9375 8.08594L8.36719 10.4688L6.96094 13.3203L8.64062 15L12.0781 11.5625L12.9375 8.08594ZM3.25 18.3594C3.27604 19.1667 3.5625 19.8438 4.10938 20.3906C4.63021 20.9375 5.30729 21.224 6.14062 21.25C6.86979 21.25 7.52083 21.0026 8.09375 20.5078L3.99219 16.4062C3.4974 16.9531 3.25 17.6042 3.25 18.3594ZM8.95312 19.6094L10.2422 18.3594L6.14062 14.2578L4.89062 15.5469L8.95312 19.6094ZM11.1797 17.5391L14.0312 16.1719L16.4141 11.5625L12.9375 12.4609L9.5 15.8594L11.1797 17.5391ZM20.7109 12.9297H20.75V11.25H18.0156L15.9062 15.2344L20.7109 12.9297Z" fill="#828282"/>
</svg>