<svg width="24" height="24" viewBox="0 0 24 24" fill="none" xmlns="http://www.w3.org/2000/svg">
<path d="M17.8789 12.3789L13.5039 16.7539C13.3216 16.918 13.112 17 12.875 17C12.638 17 12.4284 16.918 12.2461 16.7539C12.082 16.5716 12 16.362 12 16.125C12 15.888 12.082 15.6784 12.2461 15.4961L15.1445 12.625H6.75C6.49479 12.625 6.28516 12.543 6.12109 12.3789C5.95703 12.2148 5.875 12.0052 5.875 11.75C5.875 11.4948 5.95703 11.2852 6.12109 11.1211C6.28516 10.957 6.49479 10.875 6.75 10.875H15.1445L12.2461 8.00391C12.082 7.82161 12 7.61198 12 7.375C12 7.13802 12.082 6.92839 12.2461 6.74609C12.4284 6.58203 12.638 6.5 12.875 6.5C13.112 6.5 13.3216 6.58203 13.5039 6.74609L17.8789 11.1211C18.043 11.3034 18.125 11.513 18.125 11.75C18.125 11.987 18.043 12.1966 17.8789 12.3789Z" fill="#333333"/>
</svg>