<svg width="21" height="20" viewBox="0 0 21 20" fill="none" xmlns="http://www.w3.org/2000/svg">
<path d="M17.375 7.09253C18.1117 7.32957 18.625 8.03267 18.625 8.84018V12.4115C18.625 13.3587 17.9188 14.1619 16.9748 14.2389C16.6923 14.262 16.4091 14.2821 16.125 14.2994V16.875L13.625 14.375C12.4969 14.375 11.3797 14.329 10.2752 14.2388C10.0266 14.2186 9.7945 14.1479 9.58745 14.0375M17.375 7.09253C17.2488 7.05193 17.1161 7.025 16.9783 7.01356C15.8727 6.9218 14.7543 6.875 13.625 6.875C12.4957 6.875 11.3773 6.9218 10.2717 7.01356C9.32916 7.09179 8.625 7.89436 8.625 8.84018V12.4114C8.625 13.1092 9.00822 13.7288 9.58745 14.0375M17.375 7.09253V5.53109C17.375 4.17991 16.4152 3.00887 15.0753 2.83492C13.3732 2.61396 11.6375 2.5 9.87524 2.5C8.11278 2.5 6.37694 2.61399 4.6747 2.83499C3.33477 3.00895 2.375 4.17998 2.375 5.53115V10.7189C2.375 12.07 3.33478 13.2411 4.6747 13.415C5.15551 13.4774 5.63899 13.5313 6.125 13.5765V17.5L9.58745 14.0375" stroke="black" stroke-width="1.5" stroke-linecap="round" stroke-linejoin="round"/>
</svg>
