<svg width="16" height="16" viewBox="0 0 16 16" fill="none" xmlns="http://www.w3.org/2000/svg">
<path d="M8 0.750015C9.3125 0.768244 10.4883 1.08725 11.5273 1.70705C12.5846 2.32684 13.4232 3.16538 14.043 4.22267C14.6628 5.26173 14.9818 6.43752 15 7.75002C14.9818 9.06252 14.6628 10.2383 14.043 11.2774C13.4232 12.3347 12.5846 13.1732 11.5273 13.793C10.4883 14.4128 9.3125 14.7318 8 14.75C6.6875 14.7318 5.51172 14.4128 4.47266 13.793C3.41536 13.1732 2.57682 12.3347 1.95703 11.2774C1.33724 10.2383 1.01823 9.06252 1 7.75002C1.01823 6.43752 1.33724 5.26173 1.95703 4.22267C2.57682 3.16538 3.41536 2.32684 4.47266 1.70705C5.51172 1.08725 6.6875 0.768244 8 0.750015ZM8 13.4375C9.60417 13.4011 10.944 12.8451 12.0195 11.7695C13.0951 10.694 13.651 9.35418 13.6875 7.75002C13.651 6.14585 13.0951 4.806 12.0195 3.73048C10.944 2.65496 9.60417 2.09897 8 2.06252C6.39583 2.09897 5.05599 2.65496 3.98047 3.73048C2.90495 4.806 2.34896 6.14585 2.3125 7.75002C2.34896 9.35418 2.90495 10.694 3.98047 11.7695C5.05599 12.8451 6.39583 13.4011 8 13.4375ZM8 9.06252C7.59896 9.02606 7.38021 8.80731 7.34375 8.40627V4.90627C7.38021 4.50522 7.59896 4.28647 8 4.25002C8.40104 4.28647 8.61979 4.50522 8.65625 4.90627V8.40627C8.61979 8.80731 8.40104 9.02606 8 9.06252ZM8 9.96486C8.23698 9.96486 8.4375 10.0469 8.60156 10.211C8.76562 10.375 8.84766 10.5847 8.84766 10.8399C8.84766 11.0768 8.76562 11.2774 8.60156 11.4414C8.4375 11.6055 8.23698 11.6875 8 11.6875C7.76302 11.6875 7.5625 11.6055 7.39844 11.4414C7.23438 11.2774 7.15234 11.0768 7.15234 10.8399C7.15234 10.5847 7.23438 10.375 7.39844 10.211C7.5625 10.0469 7.76302 9.96486 8 9.96486Z" fill="#F7B401"/>
</svg>