<svg width="26" height="24" viewBox="0 0 26 24" fill="none" xmlns="http://www.w3.org/2000/svg">
<path d="M13 15C11.8542 14.974 10.8906 14.5833 10.1094 13.8281C9.35417 13.0469 8.97656 12.0833 8.97656 10.9375C9.0026 9.79167 9.39323 8.82812 10.1484 8.04688C10.9036 7.29167 11.8542 6.90104 13 6.875C14.1198 6.90104 15.0703 7.29167 15.8516 8.04688C16.6068 8.82812 16.9974 9.79167 17.0234 10.9375C16.9974 12.0833 16.6068 13.0469 15.8516 13.8281C15.0964 14.5833 14.1458 14.974 13 15ZM13 8.125C12.1927 8.15104 11.5286 8.42448 11.0078 8.94531C10.487 9.46615 10.2135 10.1302 10.1875 10.9375C10.2135 11.7448 10.487 12.4089 11.0078 12.9297C11.5286 13.4505 12.1927 13.724 13 13.75C13.7812 13.724 14.4453 13.4505 14.9922 12.9297C15.513 12.4089 15.7865 11.7448 15.8125 10.9375C15.7865 10.1302 15.513 9.46615 14.9922 8.94531C14.4453 8.42448 13.7812 8.15104 13 8.125ZM14.9531 16.25C16.5156 16.276 17.8177 16.7839 18.8594 17.7734C19.901 18.763 20.4479 19.987 20.5 21.4453C20.5 21.7578 20.3958 22.0052 20.1875 22.1875C19.9792 22.3958 19.7188 22.5 19.4062 22.5H6.59375C6.28125 22.5 6.02083 22.3958 5.8125 22.1875C5.60417 22.0052 5.5 21.7578 5.5 21.4453C5.55208 19.987 6.09896 18.763 7.14062 17.7734C8.18229 16.7839 9.48438 16.276 11.0469 16.25H14.9531ZM6.75 21.25H19.2109C19.1328 20.1823 18.7031 19.2969 17.9219 18.5938C17.1146 17.8906 16.125 17.526 14.9531 17.5H11.0078C9.86198 17.526 8.88542 17.8906 8.07812 18.5938C7.29688 19.2969 6.85417 20.1823 6.75 21.25ZM20.5 8.75C19.6146 8.72396 18.8724 8.42448 18.2734 7.85156C17.7005 7.2526 17.401 6.51042 17.375 5.625C17.401 4.73958 17.7005 3.9974 18.2734 3.39844C18.8724 2.82552 19.6146 2.52604 20.5 2.5C21.3854 2.52604 22.1276 2.82552 22.7266 3.39844C23.2995 3.9974 23.599 4.73958 23.625 5.625C23.599 6.51042 23.2995 7.2526 22.7266 7.85156C22.1276 8.42448 21.3854 8.72396 20.5 8.75ZM20.5 3.75C19.9792 3.77604 19.5365 3.95833 19.1719 4.29688C18.8333 4.66146 18.651 5.10417 18.625 5.625C18.651 6.14583 18.8333 6.58854 19.1719 6.95312C19.5365 7.29167 19.9792 7.47396 20.5 7.5C21.0208 7.47396 21.4635 7.29167 21.8281 6.95312C22.1667 6.58854 22.349 6.14583 22.375 5.625C22.349 5.10417 22.1667 4.66146 21.8281 4.29688C21.4635 3.95833 21.0208 3.77604 20.5 3.75ZM5.5 8.75C4.61458 8.72396 3.8724 8.42448 3.27344 7.85156C2.70052 7.2526 2.40104 6.51042 2.375 5.625C2.40104 4.73958 2.70052 3.9974 3.27344 3.39844C3.8724 2.82552 4.61458 2.52604 5.5 2.5C6.38542 2.52604 7.1276 2.82552 7.72656 3.39844C8.29948 3.9974 8.59896 4.73958 8.625 5.625C8.59896 6.51042 8.29948 7.2526 7.72656 7.85156C7.1276 8.42448 6.38542 8.72396 5.5 8.75ZM5.5 3.75C4.97917 3.77604 4.53646 3.95833 4.17188 4.29688C3.83333 4.66146 3.65104 5.10417 3.625 5.625C3.65104 6.14583 3.83333 6.58854 4.17188 6.95312C4.53646 7.29167 4.97917 7.47396 5.5 7.5C6.02083 7.47396 6.46354 7.29167 6.82812 6.95312C7.16667 6.58854 7.34896 6.14583 7.375 5.625C7.34896 5.10417 7.16667 4.66146 6.82812 4.29688C6.46354 3.95833 6.02083 3.77604 5.5 3.75ZM22.4141 10C23.2995 10.026 24.0286 10.3385 24.6016 10.9375C25.1745 11.5625 25.474 12.3307 25.5 13.2422V13.75C25.474 14.1406 25.2656 14.349 24.875 14.375C24.4844 14.349 24.276 14.1406 24.25 13.75V13.2422C24.224 12.6693 24.0417 12.2005 23.7031 11.8359C23.3385 11.4714 22.9089 11.276 22.4141 11.25H19.875C19.6146 11.25 19.3672 11.3021 19.1328 11.4062C18.7682 11.5365 18.4948 11.4453 18.3125 11.1328C18.1823 10.7682 18.2865 10.4818 18.625 10.2734C19.0156 10.0911 19.4323 10 19.875 10H22.4141ZM6.86719 11.4062C6.63281 11.3021 6.38542 11.25 6.125 11.25H3.58594C3.0651 11.276 2.63542 11.4714 2.29688 11.8359C1.95833 12.2005 1.77604 12.6693 1.75 13.2422V13.75C1.72396 14.1406 1.51562 14.349 1.125 14.375C0.734375 14.349 0.526042 14.1406 0.5 13.75V13.2422C0.526042 12.3307 0.825521 11.5625 1.39844 10.9375C1.97135 10.3385 2.70052 10.026 3.58594 10H6.125C6.56771 10 6.9974 10.0911 7.41406 10.2734C7.72656 10.4818 7.81771 10.7682 7.6875 11.1328C7.50521 11.4453 7.23177 11.5365 6.86719 11.4062Z" fill="#828282"/>
</svg>