<svg width="24" height="24" viewBox="0 0 24 24" fill="none" xmlns="http://www.w3.org/2000/svg">
<path d="M17.1172 3.39844C17.612 2.90365 18.1979 2.65625 18.875 2.65625C19.5521 2.65625 20.151 2.90365 20.6719 3.39844L21.1016 3.86719C21.5964 4.36198 21.8438 4.94792 21.8438 5.625C21.8438 6.30208 21.5964 6.88802 21.1016 7.38281L13.6016 14.9219C13.237 15.2604 12.8203 15.4818 12.3516 15.5859L8.99219 16.2891C8.75781 16.3411 8.57552 16.2891 8.44531 16.1328C8.28906 15.9505 8.22396 15.7552 8.25 15.5469L8.95312 12.2266C9.05729 11.7318 9.27865 11.3151 9.61719 10.9766L17.1172 3.39844ZM19.7734 4.25781C19.513 4.02344 19.2135 3.90625 18.875 3.90625C18.5365 3.90625 18.237 4.03646 17.9766 4.29688L16.9219 5.3125L19.1875 7.53906L20.2422 6.52344C20.4766 6.26302 20.5938 5.96354 20.5938 5.625C20.5938 5.28646 20.4766 4.98698 20.2422 4.72656L19.7734 4.25781ZM10.2031 12.4609L9.69531 14.8828L12.0781 14.375C12.3385 14.3229 12.5469 14.2057 12.7031 14.0234L18.2891 8.4375L16.1016 6.21094L10.5156 11.8359C10.3594 12.0182 10.2552 12.2266 10.2031 12.4609ZM13.7578 4.57031C13.1849 4.4401 12.599 4.375 12 4.375C9.70833 4.42708 7.79427 5.22135 6.25781 6.75781C4.72135 8.29427 3.92708 10.2083 3.875 12.5C3.92708 14.7917 4.72135 16.7057 6.25781 18.2422C7.79427 19.7786 9.70833 20.5729 12 20.625C12.3906 20.651 12.599 20.8594 12.625 21.25C12.599 21.6406 12.3906 21.849 12 21.875C10.2552 21.849 8.67969 21.4193 7.27344 20.5859C5.86719 19.7526 4.7474 18.6328 3.91406 17.2266C3.08073 15.8203 2.65104 14.2448 2.625 12.5C2.65104 10.7552 3.08073 9.17969 3.91406 7.77344C4.7474 6.36719 5.86719 5.2474 7.27344 4.41406C8.67969 3.58073 10.2552 3.15104 12 3.125C12.9635 3.125 13.875 3.26823 14.7344 3.55469L13.7578 4.57031ZM21.375 12.5C21.3229 14.0885 20.776 15.4167 19.7344 16.4844C18.6667 17.526 17.3385 18.0729 15.75 18.125C15.2552 18.125 14.7865 18.0729 14.3438 17.9688C13.9792 17.8385 13.8359 17.5651 13.9141 17.1484C14.0443 16.8099 14.2786 16.6797 14.6172 16.7578C15.0078 16.8359 15.3854 16.875 15.75 16.875C17 16.849 18.0286 16.4193 18.8359 15.5859C19.6693 14.7786 20.099 13.75 20.125 12.5C20.125 11.901 20.0599 11.3281 19.9297 10.7812L20.9844 9.76562C21.2448 10.625 21.375 11.5365 21.375 12.5Z" fill="#828282"/>
</svg>