<svg width="24" height="24" viewBox="0 0 24 24" fill="none" xmlns="http://www.w3.org/2000/svg">
<path d="M8.875 3.75C9.39583 3.77604 9.83854 3.95833 10.2031 4.29688C10.5417 4.66146 10.724 5.10417 10.75 5.625V10C10.724 10.5208 10.5417 10.9635 10.2031 11.3281C9.83854 11.6667 9.39583 11.849 8.875 11.875H3.875C3.35417 11.849 2.91146 11.6667 2.54688 11.3281C2.20833 10.9635 2.02604 10.5208 2 10V5.625C2.02604 5.10417 2.20833 4.66146 2.54688 4.29688C2.91146 3.95833 3.35417 3.77604 3.875 3.75H8.875ZM8.875 5H3.875C3.48438 5.02604 3.27604 5.23438 3.25 5.625V10C3.27604 10.3906 3.48438 10.599 3.875 10.625H8.875C9.26562 10.599 9.47396 10.3906 9.5 10V5.625C9.47396 5.23438 9.26562 5.02604 8.875 5ZM8.875 13.125C9.39583 13.151 9.83854 13.3333 10.2031 13.6719C10.5417 14.0365 10.724 14.4792 10.75 15V19.375C10.724 19.8958 10.5417 20.3385 10.2031 20.7031C9.83854 21.0417 9.39583 21.224 8.875 21.25H3.875C3.35417 21.224 2.91146 21.0417 2.54688 20.7031C2.20833 20.3385 2.02604 19.8958 2 19.375V15C2.02604 14.4792 2.20833 14.0365 2.54688 13.6719C2.91146 13.3333 3.35417 13.151 3.875 13.125H8.875ZM8.875 14.375H3.875C3.48438 14.401 3.27604 14.6094 3.25 15V19.375C3.27604 19.7656 3.48438 19.974 3.875 20H8.875C9.26562 19.974 9.47396 19.7656 9.5 19.375V15C9.47396 14.6094 9.26562 14.401 8.875 14.375ZM12 5.625C12.026 5.10417 12.2083 4.66146 12.5469 4.29688C12.9115 3.95833 13.3542 3.77604 13.875 3.75H20.125C20.6458 3.77604 21.0885 3.95833 21.4531 4.29688C21.7917 4.66146 21.974 5.10417 22 5.625V6.875C21.974 7.39583 21.7917 7.83854 21.4531 8.20312C21.0885 8.54167 20.6458 8.72396 20.125 8.75H13.875C13.3542 8.72396 12.9115 8.54167 12.5469 8.20312C12.2083 7.83854 12.026 7.39583 12 6.875V5.625ZM13.25 5.625V6.875C13.276 7.26562 13.4844 7.47396 13.875 7.5H20.125C20.5156 7.47396 20.724 7.26562 20.75 6.875V5.625C20.724 5.23438 20.5156 5.02604 20.125 5H13.875C13.4844 5.02604 13.276 5.23438 13.25 5.625ZM20.125 10C20.6458 10.026 21.0885 10.2083 21.4531 10.5469C21.7917 10.9115 21.974 11.3542 22 11.875V13.125C21.974 13.6458 21.7917 14.0885 21.4531 14.4531C21.0885 14.7917 20.6458 14.974 20.125 15H13.875C13.3542 14.974 12.9115 14.7917 12.5469 14.4531C12.2083 14.0885 12.026 13.6458 12 13.125V11.875C12.026 11.3542 12.2083 10.9115 12.5469 10.5469C12.9115 10.2083 13.3542 10.026 13.875 10H20.125ZM20.125 11.25H13.875C13.4844 11.276 13.276 11.4844 13.25 11.875V13.125C13.276 13.5156 13.4844 13.724 13.875 13.75H20.125C20.5156 13.724 20.724 13.5156 20.75 13.125V11.875C20.724 11.4844 20.5156 11.276 20.125 11.25ZM12 18.125C12.026 17.6042 12.2083 17.1615 12.5469 16.7969C12.9115 16.4583 13.3542 16.276 13.875 16.25H20.125C20.6458 16.276 21.0885 16.4583 21.4531 16.7969C21.7917 17.1615 21.974 17.6042 22 18.125V19.375C21.974 19.8958 21.7917 20.3385 21.4531 20.7031C21.0885 21.0417 20.6458 21.224 20.125 21.25H13.875C13.3542 21.224 12.9115 21.0417 12.5469 20.7031C12.2083 20.3385 12.026 19.8958 12 19.375V18.125ZM13.25 18.125V19.375C13.276 19.7656 13.4844 19.974 13.875 20H20.125C20.5156 19.974 20.724 19.7656 20.75 19.375V18.125C20.724 17.7344 20.5156 17.526 20.125 17.5H13.875C13.4844 17.526 13.276 17.7344 13.25 18.125Z" fill="#828282"/>
</svg>