<svg width="24" height="24" viewBox="0 0 24 24" fill="none" xmlns="http://www.w3.org/2000/svg">
<path d="M15.1991 5.43359C15.6001 5.05078 16.065 4.85938 16.5936 4.85938C17.1223 4.85938 17.5871 5.05078 17.9882 5.43359L18.3163 5.76172C18.6991 6.16276 18.8905 6.6276 18.8905 7.15625C18.8905 7.6849 18.6991 8.14974 18.3163 8.55078L12.9296 13.9375C12.6926 14.1745 12.41 14.3477 12.0819 14.457L9.34753 15.2227C9.09233 15.2956 8.87358 15.2318 8.69128 15.0312C8.52722 14.8672 8.47253 14.6576 8.52722 14.4023L9.32019 11.668C9.41134 11.3398 9.5754 11.0573 9.81238 10.8203L15.1991 5.43359ZM17.0311 6.36328C16.7395 6.10807 16.4387 6.10807 16.1288 6.36328L15.3358 7.15625L16.5936 8.41406L17.3866 7.59375C17.6418 7.30208 17.6418 7.0013 17.3866 6.69141L17.0311 6.36328ZM10.578 12.0508L10.1132 13.6367L11.6991 13.1719C11.8085 13.1536 11.9087 13.099 11.9999 13.0078L15.6639 9.34375L14.4061 8.08594L10.7421 11.75C10.6509 11.8411 10.5962 11.9414 10.578 12.0508ZM10.4686 6.5C10.8697 6.53646 11.0884 6.75521 11.1249 7.15625C11.0884 7.55729 10.8697 7.77604 10.4686 7.8125H7.40613C7.09623 7.8125 6.84102 7.92188 6.6405 8.14062C6.42175 8.34115 6.31238 8.59635 6.31238 8.90625V16.3438C6.31238 16.6536 6.42175 16.9089 6.6405 17.1094C6.84102 17.3281 7.09623 17.4375 7.40613 17.4375H14.8436C15.1535 17.4375 15.4087 17.3281 15.6093 17.1094C15.828 16.9089 15.9374 16.6536 15.9374 16.3438V13.2812C15.9738 12.8802 16.1926 12.6615 16.5936 12.625C16.9947 12.6615 17.2134 12.8802 17.2499 13.2812V16.3438C17.2316 17.0182 16.9947 17.5833 16.5389 18.0391C16.0832 18.4948 15.5181 18.7318 14.8436 18.75H7.40613C6.73165 18.7318 6.16654 18.4948 5.71082 18.0391C5.25509 17.5833 5.01811 17.0182 4.99988 16.3438V8.90625C5.01811 8.23177 5.25509 7.66667 5.71082 7.21094C6.16654 6.75521 6.73165 6.51823 7.40613 6.5H10.4686Z" fill="#333333"/>
</svg>