<svg xmlns="http://www.w3.org/2000/svg" width="20" height="20" viewBox="0 0 20 20" fill="none">
  <path d="M3.31646 6.8522C2.54721 7.76158 1.9602 8.83007 1.61182 10.0013C2.6879 13.615 6.03578 16.2501 9.9991 16.2501C10.8262 16.2501 11.6266 16.1353 12.3851 15.9208M5.18954 5.18975C6.56976 4.27971 8.22294 3.75006 9.99984 3.75006C13.9632 3.75006 17.311 6.3851 18.3871 9.99883C17.7939 11.9933 16.5087 13.6898 14.8099 14.8101M5.18954 5.18975L2.49985 2.50006M5.18954 5.18975L8.23209 8.23229M14.8099 14.8101L17.4999 17.5001M14.8099 14.8101L11.7676 11.7678M11.7676 11.7678C12.22 11.3154 12.4999 10.6904 12.4999 10.0001C12.4999 8.61935 11.3806 7.50006 9.99985 7.50006C9.3095 7.50006 8.6845 7.77988 8.23209 8.23229M11.7676 11.7678L8.23209 8.23229" stroke="#0F172A" stroke-opacity="0.5" stroke-width="1.5" stroke-linecap="round" stroke-linejoin="round"/>
</svg>