<svg width="24" height="24" viewBox="0 0 24 24" fill="none" xmlns="http://www.w3.org/2000/svg">
<path d="M12.625 11.6406C12.9375 11.6927 13.25 11.7578 13.5625 11.8359C13.9271 11.9661 14.0833 12.2135 14.0312 12.5781C13.875 12.9427 13.6146 13.099 13.25 13.0469C13.1458 13.0208 13.0026 12.9818 12.8203 12.9297C12.638 12.9036 12.4948 12.8776 12.3906 12.8516C11.8698 12.7734 11.4661 12.8125 11.1797 12.9688C10.8932 13.099 10.75 13.2292 10.75 13.3594C10.75 13.5417 10.763 13.6458 10.7891 13.6719C10.8151 13.724 10.8802 13.8021 10.9844 13.9062C11.2448 14.0625 11.6484 14.2188 12.1953 14.375C12.7422 14.5052 13.263 14.7266 13.7578 15.0391C14.0182 15.1953 14.2266 15.4297 14.3828 15.7422C14.513 16.0807 14.5391 16.4453 14.4609 16.8359C14.3047 17.487 13.9271 17.9427 13.3281 18.2031C13.0938 18.3073 12.8594 18.3724 12.625 18.3984V18.75C12.599 19.1406 12.3906 19.349 12 19.375C11.6094 19.349 11.401 19.1406 11.375 18.75V18.3594C10.9323 18.2812 10.5156 18.1641 10.125 18.0078C10.0469 17.9818 9.98177 17.9557 9.92969 17.9297C9.59115 17.7734 9.46094 17.513 9.53906 17.1484C9.69531 16.8099 9.95573 16.6797 10.3203 16.7578C10.3464 16.7839 10.3984 16.7969 10.4766 16.7969C10.5026 16.8229 10.5286 16.8359 10.5547 16.8359C10.5547 16.8359 10.5677 16.8359 10.5938 16.8359C10.9844 16.9922 11.3229 17.0833 11.6094 17.1094C12.1562 17.2135 12.5599 17.2005 12.8203 17.0703C13.0807 16.9661 13.224 16.8099 13.25 16.6016C13.25 16.4193 13.237 16.3021 13.2109 16.25C13.1849 16.1979 13.1198 16.1198 13.0156 16.0156C12.7552 15.8594 12.3646 15.7031 11.8438 15.5469H11.7656C11.7396 15.5208 11.7266 15.5078 11.7266 15.5078C11.2318 15.4036 10.75 15.1953 10.2812 14.8828C10.0208 14.7526 9.8125 14.5312 9.65625 14.2188C9.5 13.9062 9.46094 13.5677 9.53906 13.2031C9.69531 12.526 10.0729 12.0703 10.6719 11.8359C10.8802 11.7318 11.1146 11.6536 11.375 11.6016V11.2109C11.401 10.8464 11.6094 10.638 12 10.5859C12.3906 10.638 12.599 10.8464 12.625 11.2109V11.6406ZM8.99219 7.1875L6.76562 3.98438C6.55729 3.64583 6.53125 3.32031 6.6875 3.00781C6.86979 2.69531 7.15625 2.52604 7.54688 2.5H16.4531C16.8438 2.52604 17.1302 2.69531 17.3125 3.00781C17.4688 3.32031 17.4427 3.64583 17.2344 3.98438L14.9688 7.1875C15.3073 7.39583 15.6589 7.64323 16.0234 7.92969C16.8568 8.5026 17.7292 9.28385 18.6406 10.2734C19.5521 11.263 20.3333 12.4609 20.9844 13.8672C21.6354 15.2734 21.974 16.901 22 18.75C21.974 19.8177 21.6094 20.7031 20.9062 21.4062C20.2031 22.1094 19.3177 22.474 18.25 22.5H5.75C4.68229 22.474 3.79688 22.1094 3.09375 21.4062C2.39062 20.7031 2.02604 19.8177 2 18.75C2.02604 16.901 2.36458 15.2734 3.01562 13.8672C3.66667 12.4609 4.44792 11.263 5.35938 10.2734C6.27083 9.28385 7.14323 8.5026 7.97656 7.92969C8.34115 7.64323 8.67969 7.39583 8.99219 7.1875ZM9.65625 8.24219C8.90104 8.71094 8.02865 9.40104 7.03906 10.3125C6.04948 11.224 5.17708 12.3828 4.42188 13.7891C3.69271 15.1693 3.30208 16.8229 3.25 18.75C3.27604 19.4531 3.52344 20.0391 3.99219 20.5078C4.46094 20.9766 5.04688 21.224 5.75 21.25H18.25C18.9531 21.224 19.5391 20.9766 20.0078 20.5078C20.4766 20.0391 20.724 19.4531 20.75 18.75C20.6979 16.8229 20.3073 15.1693 19.5781 13.7891C18.8229 12.3828 17.9505 11.224 16.9609 10.3125C15.9714 9.40104 15.099 8.71094 14.3438 8.24219L14.1484 8.08594H9.89062L9.65625 8.24219ZM13.7188 6.83594L15.8672 3.71094H8.13281L10.2812 6.83594H13.7188Z" fill="#828282"/>
</svg>