<svg width="149" height="95" viewBox="0 0 149 95" fill="none" xmlns="http://www.w3.org/2000/svg">
<path d="M5.27183 41.0001C5.15543 41.0002 5.04017 40.9773 4.93264 40.9328C4.82511 40.8882 4.72746 40.8229 4.64527 40.7404L0.509523 36.6047C0.348089 36.4375 0.258756 36.2137 0.260776 35.9813C0.262795 35.7489 0.356 35.5267 0.520315 35.3624C0.684629 35.198 0.906905 35.1048 1.13927 35.1028C1.37164 35.1008 1.5955 35.1901 1.76265 35.3516L5.89839 39.4873C6.0223 39.6113 6.10668 39.7691 6.14086 39.941C6.17504 40.1129 6.15749 40.2911 6.09043 40.453C6.02337 40.6149 5.9098 40.7533 5.76409 40.8507C5.61839 40.9481 5.44708 41.0001 5.27183 41.0001Z" fill="#0CBC8B"/>
<path d="M1.13604 41.0001C0.960788 41.0001 0.789488 40.9481 0.643783 40.8507C0.498077 40.7533 0.384511 40.6149 0.31745 40.453C0.250389 40.2911 0.232839 40.1129 0.267019 39.941C0.301199 39.7691 0.385579 39.6113 0.509483 39.4873L4.64523 35.3516C4.81238 35.1901 5.03624 35.1008 5.26861 35.1028C5.50097 35.1048 5.72325 35.198 5.88756 35.3624C6.05188 35.5267 6.14508 35.7489 6.1471 35.9813C6.14912 36.2137 6.05979 36.4375 5.89835 36.6047L1.76261 40.7404C1.68044 40.8229 1.58279 40.8883 1.47526 40.9328C1.36773 40.9774 1.25244 41.0003 1.13604 41.0001Z" fill="#0CBC8B"/>
<path d="M123.686 80.5291L122.506 83.2371L129.771 86.4044L130.952 83.6964L123.686 80.5291Z" fill="#0CBC8B"/>
<path d="M125.98 7.92902L119.146 11.9443L120.643 14.4912L127.476 10.476L125.98 7.92902Z" fill="#0CBC8B"/>
<path d="M12.1144 14.8052L11.1992 17.614L18.7351 20.0694L19.6503 17.2607L12.1144 14.8052Z" fill="#0CBC8B"/>
<path d="M20.9364 61.9147L14.4453 66.4561L16.138 68.8755L22.6291 64.3341L20.9364 61.9147Z" fill="#0CBC8B"/>
<path d="M139.991 51.5048L139.72 54.4464L147.439 55.1581L147.711 52.2164L139.991 51.5048Z" fill="#0CBC8B"/>
<path d="M147.853 30.3449C147.737 30.3451 147.621 30.3222 147.514 30.2776C147.406 30.2331 147.309 30.1677 147.227 30.0852L143.091 25.9495C143.006 25.8677 142.939 25.7699 142.892 25.6618C142.846 25.5537 142.821 25.4374 142.82 25.3197C142.819 25.202 142.842 25.0853 142.886 24.9764C142.931 24.8675 142.997 24.7686 143.08 24.6854C143.163 24.6021 143.262 24.5363 143.371 24.4918C143.48 24.4472 143.597 24.4248 143.714 24.4258C143.832 24.4268 143.948 24.4513 144.056 24.4977C144.164 24.5442 144.262 24.6117 144.344 24.6963L148.48 28.8321C148.604 28.956 148.688 29.1139 148.722 29.2858C148.756 29.4577 148.739 29.6359 148.672 29.7978C148.605 29.9597 148.491 30.0981 148.345 30.1955C148.2 30.2929 148.028 30.3449 147.853 30.3449Z" fill="#0CBC8B"/>
<path d="M143.717 30.3449C143.542 30.3449 143.371 30.2929 143.225 30.1955C143.079 30.0981 142.966 29.9597 142.899 29.7978C142.831 29.6359 142.814 29.4577 142.848 29.2858C142.882 29.1139 142.967 28.956 143.091 28.8321L147.226 24.6963C147.308 24.6117 147.406 24.5442 147.514 24.4977C147.622 24.4513 147.738 24.4268 147.856 24.4258C147.974 24.4248 148.09 24.4472 148.199 24.4918C148.308 24.5363 148.407 24.6021 148.49 24.6854C148.574 24.7686 148.639 24.8675 148.684 24.9764C148.729 25.0853 148.751 25.202 148.75 25.3197C148.749 25.4374 148.724 25.5537 148.678 25.6618C148.632 25.7699 148.564 25.8677 148.479 25.9495L144.344 30.0852C144.261 30.1676 144.164 30.233 144.056 30.2776C143.949 30.3221 143.833 30.345 143.717 30.3449Z" fill="#0CBC8B"/>
<path opacity="0.4" d="M75.0484 94.2531C101.076 94.2531 122.175 73.1538 122.175 47.1265C122.175 21.0993 101.076 0 75.0484 0C49.0212 0 27.9219 21.0993 27.9219 47.1265C27.9219 73.1538 49.0212 94.2531 75.0484 94.2531Z" fill="#0CBC8B"/>
<path d="M75.0489 80.0846C93.2511 80.0846 108.007 65.3288 108.007 47.1265C108.007 28.9243 93.2511 14.1685 75.0489 14.1685C56.8467 14.1685 42.0908 28.9243 42.0908 47.1265C42.0908 65.3288 56.8467 80.0846 75.0489 80.0846Z" fill="#0CBC8B"/>
<path d="M68.3095 61.2658C68.0507 61.266 67.7946 61.2137 67.5566 61.1122C67.3186 61.0106 67.1036 60.8619 66.9246 60.675L56.4343 49.7575C56.2563 49.5763 56.116 49.3617 56.0216 49.126C55.9271 48.8902 55.8803 48.6381 55.884 48.3842C55.8876 48.1302 55.9416 47.8796 56.0428 47.6466C56.144 47.4137 56.2904 47.2032 56.4735 47.0272C56.6566 46.8513 56.8728 46.7134 57.1096 46.6215C57.3463 46.5297 57.599 46.4857 57.8528 46.4922C58.1067 46.4987 58.3568 46.5554 58.5886 46.6592C58.8204 46.763 59.0293 46.9117 59.2032 47.0967L68.4082 56.6763L92.4735 35.088C92.6607 34.9168 92.88 34.7844 93.1187 34.6984C93.3574 34.6125 93.6107 34.5747 93.8641 34.5872C94.1175 34.5997 94.3659 34.6623 94.5949 34.7714C94.824 34.8805 95.0291 35.0339 95.1986 35.2227C95.368 35.4116 95.4983 35.6321 95.582 35.8716C95.6657 36.1111 95.7011 36.3648 95.6861 36.618C95.6712 36.8713 95.6062 37.1191 95.495 37.3471C95.3837 37.5751 95.2284 37.7788 95.0379 37.9464L69.5916 60.7739C69.2398 61.0908 68.783 61.2661 68.3095 61.2658Z" fill="white"/>
</svg>