<svg width="24" height="24" viewBox="0 0 24 24" fill="none" xmlns="http://www.w3.org/2000/svg">
<path d="M19.5 6.25C20.2031 6.27604 20.7891 6.52344 21.2578 6.99219C21.7266 7.46094 21.974 8.04688 22 8.75V18.75C21.974 19.4531 21.7266 20.0391 21.2578 20.5078C20.7891 20.9766 20.2031 21.224 19.5 21.25H4.5C3.79688 21.224 3.21094 20.9766 2.74219 20.5078C2.27344 20.0391 2.02604 19.4531 2 18.75V6.25C2.02604 5.54688 2.27344 4.96094 2.74219 4.49219C3.21094 4.02344 3.79688 3.77604 4.5 3.75H9.10938C9.78646 3.75 10.3724 3.9974 10.8672 4.49219L12.625 6.25H19.5ZM20.75 18.75V8.75C20.75 8.38542 20.6328 8.08594 20.3984 7.85156C20.1641 7.61719 19.8646 7.5 19.5 7.5H12.1172L9.96875 5.35156C9.73438 5.11719 9.44792 5 9.10938 5H4.5C4.13542 5 3.83594 5.11719 3.60156 5.35156C3.36719 5.58594 3.25 5.88542 3.25 6.25V18.75C3.25 19.1146 3.36719 19.4141 3.60156 19.6484C3.83594 19.8828 4.13542 20 4.5 20H19.5C19.8646 20 20.1641 19.8828 20.3984 19.6484C20.6328 19.4141 20.75 19.1146 20.75 18.75ZM15.125 12.5C15.5156 12.5521 15.724 12.7474 15.75 13.0859V14.375C15.724 14.7396 15.5156 14.9349 15.125 14.9609H13.25V16.875C13.224 17.2656 13.0156 17.474 12.625 17.5H11.375C10.9844 17.474 10.776 17.2396 10.75 16.7969V14.9609H8.875C8.48438 14.9349 8.27604 14.7396 8.25 14.375V13.0859C8.27604 12.7474 8.48438 12.5521 8.875 12.5H10.75V10.625C10.776 10.2344 10.9844 10.026 11.375 10H12.625C13.0156 10.026 13.224 10.2344 13.25 10.625V12.5H15.125Z" fill="#828282"/>
</svg>
