<svg width="21" height="20" viewBox="0 0 21 20" fill="none" xmlns="http://www.w3.org/2000/svg">
<path d="M6.5 8V6C6.52083 4.875 6.90625 3.92708 7.65625 3.15625C8.42708 2.40625 9.375 2.02083 10.5 2C11.625 2.02083 12.5729 2.40625 13.3438 3.15625C14.0938 3.92708 14.4792 4.875 14.5 6V8H15C15.7083 8.02083 16.3021 8.26042 16.7812 8.71875C17.2396 9.19792 17.4792 9.79167 17.5 10.5V15.5C17.4792 16.2083 17.2396 16.8021 16.7812 17.2812C16.3021 17.7396 15.7083 17.9792 15 18H6C5.29167 17.9792 4.69792 17.7396 4.21875 17.2812C3.76042 16.8021 3.52083 16.2083 3.5 15.5V10.5C3.52083 9.79167 3.76042 9.19792 4.21875 8.71875C4.69792 8.26042 5.29167 8.02083 6 8H6.5ZM7.5 8H13.5V6C13.4792 5.14583 13.1875 4.4375 12.625 3.875C12.0625 3.3125 11.3542 3.02083 10.5 3C9.64583 3.02083 8.9375 3.3125 8.375 3.875C7.8125 4.4375 7.52083 5.14583 7.5 6V8ZM4.5 15.5C4.52083 15.9167 4.66667 16.2708 4.9375 16.5625C5.22917 16.8333 5.58333 16.9792 6 17H15C15.4167 16.9792 15.7708 16.8333 16.0625 16.5625C16.3333 16.2708 16.4792 15.9167 16.5 15.5V10.5C16.4792 10.0833 16.3333 9.72917 16.0625 9.4375C15.7708 9.16667 15.4167 9.02083 15 9H6C5.58333 9.02083 5.22917 9.16667 4.9375 9.4375C4.66667 9.72917 4.52083 10.0833 4.5 10.5V15.5Z" fill="#828282"/>
</svg>