<svg width="20" height="20" viewBox="0 0 20 20" fill="none" xmlns="http://www.w3.org/2000/svg">
<path d="M6.875 12.5L6.875 15.625C6.875 16.1223 7.07254 16.5992 7.42418 16.9509C7.77581 17.3025 8.25272 17.5 8.75 17.5L13.75 17.5C14.2473 17.5 14.7242 17.3025 15.0758 16.9509C15.4275 16.5992 15.625 16.1223 15.625 15.625L15.625 4.37503C15.625 3.87775 15.4275 3.40084 15.0758 3.04921C14.7242 2.69758 14.2473 2.50003 13.75 2.50003L8.75 2.50003C8.25272 2.50003 7.77581 2.69757 7.42418 3.04921C7.07255 3.40084 6.875 3.87775 6.875 4.37503L6.875 7.50003M10 12.5L12.5 10M12.5 10L10 7.50003M12.5 10L1.875 10" stroke="#E14B4B" stroke-width="1.5" stroke-linecap="round" stroke-linejoin="round"/>
</svg>