<svg width="26" height="24" viewBox="0 0 26 24" fill="none" xmlns="http://www.w3.org/2000/svg">
<path d="M13.625 11.875H24.875C25.2656 11.901 25.474 12.1094 25.5 12.5C25.474 12.8906 25.2656 13.099 24.875 13.125H19.875V15H22.375C22.8958 15.026 23.3385 15.2083 23.7031 15.5469C24.0417 15.9115 24.224 16.3542 24.25 16.875V20.625C24.224 21.1458 24.0417 21.5885 23.7031 21.9531C23.3385 22.2917 22.8958 22.474 22.375 22.5H16.125C15.6042 22.474 15.1615 22.2917 14.7969 21.9531C14.4583 21.5885 14.276 21.1458 14.25 20.625V16.875C14.276 16.3542 14.4583 15.9115 14.7969 15.5469C15.1615 15.2083 15.6042 15.026 16.125 15H18.625V13.125H7.375V15H9.875C10.3958 15.026 10.8385 15.2083 11.2031 15.5469C11.5417 15.9115 11.724 16.3542 11.75 16.875V20.625C11.724 21.1458 11.5417 21.5885 11.2031 21.9531C10.8385 22.2917 10.3958 22.474 9.875 22.5H3.625C3.10417 22.474 2.66146 22.2917 2.29688 21.9531C1.95833 21.5885 1.77604 21.1458 1.75 20.625V16.875C1.77604 16.3542 1.95833 15.9115 2.29688 15.5469C2.66146 15.2083 3.10417 15.026 3.625 15H6.125V13.125H1.125C0.734375 13.099 0.526042 12.8906 0.5 12.5C0.526042 12.1094 0.734375 11.901 1.125 11.875H12.375V10H9.875C9.35417 9.97396 8.91146 9.79167 8.54688 9.45312C8.20833 9.08854 8.02604 8.64583 8 8.125V4.375C8.02604 3.85417 8.20833 3.41146 8.54688 3.04688C8.91146 2.70833 9.35417 2.52604 9.875 2.5H16.125C16.6458 2.52604 17.0885 2.70833 17.4531 3.04688C17.7917 3.41146 17.974 3.85417 18 4.375V8.125C17.974 8.64583 17.7917 9.08854 17.4531 9.45312C17.0885 9.79167 16.6458 9.97396 16.125 10H13.625V11.875ZM16.125 3.75H9.875C9.48438 3.77604 9.27604 3.98438 9.25 4.375V8.125C9.27604 8.51562 9.48438 8.72396 9.875 8.75H16.125C16.5156 8.72396 16.724 8.51562 16.75 8.125V4.375C16.724 3.98438 16.5156 3.77604 16.125 3.75ZM16.125 16.25C15.7344 16.276 15.526 16.4844 15.5 16.875V20.625C15.526 21.0156 15.7344 21.224 16.125 21.25H22.375C22.7656 21.224 22.974 21.0156 23 20.625V16.875C22.974 16.4844 22.7656 16.276 22.375 16.25H16.125ZM3.625 16.25C3.23438 16.276 3.02604 16.4844 3 16.875V20.625C3.02604 21.0156 3.23438 21.224 3.625 21.25H9.875C10.2656 21.224 10.474 21.0156 10.5 20.625V16.875C10.474 16.4844 10.2656 16.276 9.875 16.25H3.625Z" fill="#828282"/>
</svg>
