<svg width="24" height="24" viewBox="0 0 24 24" fill="none" xmlns="http://www.w3.org/2000/svg">
<path d="M19.4609 2.5C20.1901 2.52604 20.7891 2.77344 21.2578 3.24219C21.7005 3.71094 21.9349 4.28385 21.9609 4.96094V16.1719C21.9349 16.875 21.6875 17.4609 21.2188 17.9297C20.75 18.3984 20.1641 18.6328 19.4609 18.6328H13.8359L8.95312 22.3047C8.79688 22.4089 8.64062 22.4219 8.48438 22.3438C8.32812 22.2656 8.23698 22.1224 8.21094 21.9141V18.6328H4.46094C3.75781 18.6328 3.17188 18.3984 2.70312 17.9297C2.23438 17.4609 1.98698 16.875 1.96094 16.1719V4.96094C1.98698 4.28385 2.23438 3.71094 2.70312 3.24219C3.17188 2.77344 3.75781 2.52604 4.46094 2.5H19.4609ZM20.75 16.25V5C20.75 4.63542 20.6328 4.33594 20.3984 4.10156C20.1641 3.86719 19.8646 3.75 19.5 3.75H4.5C4.13542 3.75 3.83594 3.86719 3.60156 4.10156C3.36719 4.33594 3.25 4.63542 3.25 5V16.25C3.25 16.6146 3.36719 16.9141 3.60156 17.1484C3.83594 17.3828 4.13542 17.5 4.5 17.5H8.875C9.26562 17.526 9.47396 17.7344 9.5 18.125V20.4688L13.1328 17.7344C13.3411 17.5781 13.5885 17.5 13.875 17.5H19.5C19.8646 17.5 20.1641 17.3828 20.3984 17.1484C20.6328 16.9141 20.75 16.6146 20.75 16.25ZM14.7734 6.875C15.3984 6.90104 15.9193 7.1224 16.3359 7.53906C16.7526 7.92969 16.974 8.45052 17 9.10156V11.25C16.974 12.1354 16.6615 12.8646 16.0625 13.4375C15.4896 14.0104 14.7474 14.3099 13.8359 14.3359C13.4453 14.3099 13.237 14.1146 13.2109 13.75C13.237 13.3594 13.4453 13.151 13.8359 13.125C14.3568 13.099 14.7995 12.9167 15.1641 12.5781C15.5286 12.2135 15.7109 11.7708 15.7109 11.25V10.9766C15.4245 11.1068 15.112 11.1719 14.7734 11.1719C14.1484 11.1719 13.6406 10.9635 13.25 10.5469C12.8333 10.1302 12.612 9.6224 12.5859 9.02344C12.612 8.42448 12.8333 7.91667 13.25 7.5C13.6406 7.10938 14.1484 6.90104 14.7734 6.875ZM14.8125 10C15.3854 9.94792 15.6979 9.63542 15.75 9.0625C15.6979 8.48958 15.3854 8.17708 14.8125 8.125C14.2396 8.17708 13.9271 8.48958 13.875 9.0625C13.9271 9.63542 14.2396 9.94792 14.8125 10ZM9.14844 6.875C9.77344 6.90104 10.2943 7.1224 10.7109 7.53906C11.1276 7.92969 11.349 8.45052 11.375 9.10156V11.25C11.349 12.1354 11.0365 12.8646 10.4375 13.4375C9.86458 14.0104 9.1224 14.3099 8.21094 14.3359C7.82031 14.3099 7.61198 14.1146 7.58594 13.75C7.61198 13.3594 7.82031 13.151 8.21094 13.125C8.73177 13.099 9.17448 12.9167 9.53906 12.5781C9.90365 12.2135 10.0859 11.7708 10.0859 11.25V10.9766C9.79948 11.1068 9.48698 11.1719 9.14844 11.1719C8.52344 11.1719 8.01562 10.9635 7.625 10.5469C7.20833 10.1302 6.98698 9.6224 6.96094 9.02344C6.98698 8.42448 7.20833 7.91667 7.625 7.5C8.01562 7.10938 8.52344 6.90104 9.14844 6.875ZM9.1875 10C9.76042 9.94792 10.0729 9.63542 10.125 9.0625C10.0729 8.48958 9.76042 8.17708 9.1875 8.125C8.61458 8.17708 8.30208 8.48958 8.25 9.0625C8.30208 9.63542 8.61458 9.94792 9.1875 10Z" fill="#828282"/>
</svg>