<svg width="26" height="24" viewBox="0 0 26 24" fill="none" xmlns="http://www.w3.org/2000/svg">
<path d="M23 7.5C23.7031 7.52604 24.2891 7.77344 24.7578 8.24219C25.2266 8.71094 25.474 9.28385 25.5 9.96094V17.5391C25.474 18.2161 25.2266 18.7891 24.7578 19.2578C24.2891 19.7266 23.7031 19.974 23 20H21.75V22.0312C21.724 22.3177 21.5677 22.474 21.2812 22.5C21.1771 22.5 21.0859 22.474 21.0078 22.4219L16.75 20L12.9609 19.9609C12.2839 19.9349 11.7109 19.7005 11.2422 19.2578C10.7734 18.7891 10.526 18.2031 10.5 17.5V16.25H11.75V17.5C11.75 17.8646 11.8672 18.1641 12.1016 18.3984C12.3359 18.6328 12.6354 18.75 13 18.75H17.0625L20.5 20.7031V18.75H23C23.3646 18.75 23.6641 18.6328 23.8984 18.3984C24.1328 18.1641 24.25 17.8646 24.25 17.5V10C24.25 9.63542 24.1328 9.33594 23.8984 9.10156C23.6641 8.86719 23.3646 8.75 23 8.75H18V7.5H23ZM16.75 12.5C16.724 13.2031 16.4766 13.7891 16.0078 14.2578C15.5391 14.7266 14.9531 14.974 14.25 15H9.25L4.99219 17.4219C4.91406 17.474 4.82292 17.5 4.71875 17.5C4.43229 17.474 4.27604 17.3177 4.25 17.0312V15H3C2.29688 14.974 1.71094 14.7266 1.24219 14.2578C0.773438 13.7891 0.526042 13.1901 0.5 12.4609V4.96094C0.526042 4.28385 0.773438 3.71094 1.24219 3.24219C1.71094 2.77344 2.29688 2.52604 3 2.5H14.25C14.9531 2.52604 15.5391 2.77344 16.0078 3.24219C16.4766 3.71094 16.724 4.28385 16.75 4.96094V12.5ZM8.9375 13.75H14.25C14.6146 13.75 14.9141 13.6328 15.1484 13.3984C15.3828 13.1641 15.5 12.8646 15.5 12.5V5C15.5 4.63542 15.3828 4.33594 15.1484 4.10156C14.9141 3.86719 14.6146 3.75 14.25 3.75H3C2.63542 3.75 2.33594 3.86719 2.10156 4.10156C1.86719 4.33594 1.75 4.63542 1.75 5V12.5C1.75 12.8646 1.86719 13.1641 2.10156 13.3984C2.33594 13.6328 2.63542 13.75 3 13.75H5.5V15.7031L8.9375 13.75Z" fill="#828282"/>
</svg>