<svg width="25" height="24" viewBox="0 0 25 24" fill="none" xmlns="http://www.w3.org/2000/svg">
<path d="M2.5 12.5C2.52604 10.625 2.98177 8.94531 3.86719 7.46094C4.7526 5.95052 5.95052 4.7526 7.46094 3.86719C8.94531 2.98177 10.625 2.52604 12.5 2.5C14.375 2.52604 16.0547 2.98177 17.5391 3.86719C19.0495 4.7526 20.2474 5.95052 21.1328 7.46094C22.0182 8.94531 22.474 10.625 22.5 12.5C22.474 14.375 22.0182 16.0547 21.1328 17.5391C20.2474 19.0495 19.0495 20.2474 17.5391 21.1328C16.0547 22.0182 14.375 22.474 12.5 22.5C10.625 22.474 8.94531 22.0182 7.46094 21.1328C5.95052 20.2474 4.7526 19.0495 3.86719 17.5391C2.98177 16.0547 2.52604 14.375 2.5 12.5ZM17.0312 10.7812C17.2396 10.5469 17.3438 10.2865 17.3438 10C17.3438 9.71354 17.2396 9.45312 17.0312 9.21875C16.7969 9.01042 16.5365 8.90625 16.25 8.90625C15.9635 8.90625 15.7031 9.01042 15.4688 9.21875L11.25 13.4375L9.53125 11.7188C9.29688 11.5104 9.03646 11.4062 8.75 11.4062C8.46354 11.4062 8.20312 11.5104 7.96875 11.7188C7.76042 11.9531 7.65625 12.2135 7.65625 12.5C7.65625 12.7865 7.76042 13.0469 7.96875 13.2812L10.4688 15.7812C10.7031 15.9896 10.9635 16.0938 11.25 16.0938C11.5365 16.0938 11.7969 15.9896 12.0312 15.7812L17.0312 10.7812Z" fill="#09B8AF"/>
</svg>
