<svg width="24" height="24" viewBox="0 0 24 24" fill="none" xmlns="http://www.w3.org/2000/svg">
<path d="M11.3359 3.125C11.388 2.73438 11.5964 2.52604 11.9609 2.5C12.3776 2.52604 12.599 2.73438 12.625 3.125V3.78906C14.2396 3.97135 15.5677 4.63542 16.6094 5.78125C17.6771 6.92708 18.224 8.33333 18.25 10V11.1328C18.276 12.9036 18.901 14.4271 20.125 15.7031L20.2422 15.7812C20.5807 16.1198 20.75 16.5365 20.75 17.0312C20.75 17.526 20.5807 17.9297 20.2422 18.2422C19.9297 18.5807 19.526 18.75 19.0312 18.75H4.96875C4.47396 18.75 4.07031 18.5807 3.75781 18.2422C3.41927 17.9297 3.25 17.526 3.25 17.0312C3.25 16.5365 3.41927 16.1198 3.75781 15.7812L3.875 15.7031C5.09896 14.4271 5.72396 12.9036 5.75 11.1328V10C5.77604 8.33333 6.32292 6.92708 7.39062 5.78125C8.43229 4.63542 9.76042 3.97135 11.375 3.78906L11.3359 3.125ZM11.9609 5C10.5547 5.02604 9.38281 5.50781 8.44531 6.44531C7.50781 7.40885 7.01302 8.59375 6.96094 10V11.1328C6.9349 13.2422 6.19271 15.0521 4.73438 16.5625L4.65625 16.6797C4.55208 16.7839 4.48698 16.901 4.46094 17.0312C4.51302 17.3177 4.68229 17.474 4.96875 17.5H19.0312C19.3177 17.474 19.474 17.3177 19.5 17.0312C19.5 16.901 19.4479 16.7839 19.3438 16.6797L19.2656 16.5625C17.7812 15.0521 17.026 13.2422 17 11.1328V10C16.974 8.59375 16.4792 7.40885 15.5156 6.44531C14.5781 5.50781 13.3932 5.02604 11.9609 5ZM11.9609 21.25C12.5599 21.224 12.9635 20.9505 13.1719 20.4297C13.3281 20.0651 13.6016 19.9349 13.9922 20.0391C14.3307 20.1953 14.4479 20.4557 14.3438 20.8203C14.1615 21.3151 13.862 21.7188 13.4453 22.0312C13.0286 22.3438 12.5339 22.5 11.9609 22.5C11.4141 22.5 10.9453 22.3438 10.5547 22.0312C10.138 21.7188 9.83854 21.3151 9.65625 20.8203C9.55208 20.4557 9.66927 20.1953 10.0078 20.0391C10.3984 19.9349 10.6719 20.0651 10.8281 20.4297C11.0365 20.9505 11.4141 21.224 11.9609 21.25Z" fill="#828282"/>
</svg>