<svg width="24" height="24" viewBox="0 0 24 24" fill="none" xmlns="http://www.w3.org/2000/svg">
<path d="M2 12.5C2.02604 10.625 2.48177 8.94531 3.36719 7.46094C4.2526 5.95052 5.45052 4.7526 6.96094 3.86719C8.44531 2.98177 10.125 2.52604 12 2.5C13.875 2.52604 15.5547 2.98177 17.0391 3.86719C18.5495 4.7526 19.7474 5.95052 20.6328 7.46094C21.5182 8.94531 21.974 10.625 22 12.5C21.974 14.375 21.5182 16.0547 20.6328 17.5391C19.7474 19.0495 18.5495 20.2474 17.0391 21.1328C15.5547 22.0182 13.875 22.474 12 22.5C10.125 22.474 8.44531 22.0182 6.96094 21.1328C5.45052 20.2474 4.2526 19.0495 3.36719 17.5391C2.48177 16.0547 2.02604 14.375 2 12.5ZM8.83594 10.625L10.6719 12.4609L8.83594 14.3359C8.47135 14.7786 8.47135 15.2083 8.83594 15.625C9.27865 16.0156 9.70833 16.0156 10.125 15.625L11.9609 13.8281L13.8359 15.625C14.2786 16.0156 14.7083 16.0156 15.125 15.625C15.5156 15.2083 15.5156 14.7786 15.125 14.3359L13.3281 12.4609L15.125 10.625C15.5156 10.2083 15.5156 9.77865 15.125 9.33594C14.7083 8.97135 14.2786 8.97135 13.8359 9.33594L11.9609 11.1719L10.125 9.33594C9.70833 8.97135 9.27865 8.97135 8.83594 9.33594C8.47135 9.77865 8.47135 10.2083 8.83594 10.625Z" fill="#FF4559"/>
</svg>
