<svg width="26" height="24" viewBox="0 0 26 24" fill="none" xmlns="http://www.w3.org/2000/svg">
<path d="M13.8203 6.67969C13.5339 6.91406 13.2214 6.92708 12.8828 6.71875L9.79688 3.94531L4.21094 8.86719L4.25 16.875C4.25 17.2656 4.44531 17.474 4.83594 17.5H11.75C12.1406 17.526 12.349 17.7344 12.375 18.125C12.349 18.5156 12.1406 18.724 11.75 18.75H4.875C4.35417 18.724 3.92448 18.5417 3.58594 18.2031C3.22135 17.8385 3.03906 17.3958 3.03906 16.875V9.96094L1.55469 11.25C1.24219 11.4844 0.955729 11.4714 0.695312 11.2109C0.460938 10.8984 0.473958 10.599 0.734375 10.3125L9.48438 2.65625C9.74479 2.44792 10.0182 2.44792 10.3047 2.65625L13.7812 5.78125C14.0417 6.06771 14.0547 6.36719 13.8203 6.67969ZM7.57031 8.75H10.9297C11.4245 8.80208 11.6979 9.07552 11.75 9.57031V12.9297C11.6979 13.4245 11.4245 13.6979 10.9297 13.75H7.57031C7.07552 13.6979 6.80208 13.4245 6.75 12.9297V9.57031C6.80208 9.07552 7.07552 8.80208 7.57031 8.75ZM10.4609 12.5V10H7.96094V12.5H10.4609ZM17.6094 16.25C17.9479 16.4323 18.0651 16.7188 17.9609 17.1094L17.0625 19.5703C17.0104 19.6484 16.9453 19.7266 16.8672 19.8047L14.0547 22.3438C13.9245 22.4479 13.7812 22.5 13.625 22.5C13.4427 22.5 13.2865 22.4219 13.1562 22.2656C12.9219 21.9531 12.9349 21.6536 13.1953 21.3672L15.9297 18.9453L16.7891 16.6406C16.9453 16.276 17.2188 16.1458 17.6094 16.25ZM25.2656 13.2422C25.5521 13.5026 25.5781 13.8021 25.3438 14.1406C25.2135 14.2969 25.0443 14.375 24.8359 14.375C24.7839 14.375 24.7188 14.362 24.6406 14.3359C24.5885 14.3099 24.5234 14.2839 24.4453 14.2578L21.9844 12.3828C21.8021 12.2526 21.7109 12.0833 21.7109 11.875V10.3906C21.6589 9.71354 21.3073 9.29688 20.6562 9.14062L19.1719 8.94531L18.3516 12.3438C18.1953 13.125 18.4036 13.763 18.9766 14.2578L22.0625 16.7578C22.401 17.0443 22.6224 17.3958 22.7266 17.8125L23.5859 21.7578C23.638 22.1224 23.4818 22.3698 23.1172 22.5C23.0651 22.5 23.013 22.5 22.9609 22.5C22.6745 22.474 22.4661 22.3047 22.3359 21.9922L21.4766 18.0859C21.4505 17.9557 21.3854 17.8385 21.2812 17.7344L18.1953 15.2344C17.7005 14.8438 17.362 14.362 17.1797 13.7891C16.9974 13.2422 16.9714 12.6693 17.1016 12.0703L17.9219 8.90625C17.7135 8.93229 17.5052 8.98438 17.2969 9.0625L16.2422 9.49219C15.6693 9.72656 15.3047 10.1562 15.1484 10.7812L14.8359 12.0312C14.7057 12.3958 14.4453 12.5391 14.0547 12.4609C13.6901 12.3568 13.5469 12.1094 13.625 11.7188L13.9375 10.4688C14.1979 9.45312 14.8229 8.73698 15.8125 8.32031L16.8281 7.89062C17.5312 7.63021 18.2604 7.55208 19.0156 7.65625L20.8125 7.89062C21.4375 7.99479 21.9453 8.28125 22.3359 8.75C22.7526 9.19271 22.9609 9.73958 22.9609 10.3906V11.5625L25.2656 13.2422ZM21.3984 6.875C20.7995 6.84896 20.2917 6.64062 19.875 6.25C19.4844 5.83333 19.276 5.3125 19.25 4.6875C19.25 4.0625 19.4583 3.54167 19.875 3.125C20.2656 2.73438 20.7734 2.52604 21.3984 2.5C22.0234 2.52604 22.5443 2.73438 22.9609 3.125C23.3776 3.54167 23.5859 4.0625 23.5859 4.6875C23.5599 5.3125 23.3516 5.83333 22.9609 6.25C22.5443 6.64062 22.0234 6.84896 21.3984 6.875ZM21.3984 3.75C21.1641 3.75 20.9427 3.84115 20.7344 4.02344C20.5521 4.20573 20.4609 4.42708 20.4609 4.6875C20.513 5.26042 20.8255 5.57292 21.3984 5.625C21.9714 5.57292 22.2839 5.26042 22.3359 4.6875C22.2839 4.11458 21.9714 3.80208 21.3984 3.75Z" fill="#828282"/>
</svg>
