<svg width="16" height="16" viewBox="0 0 16 16" fill="none" xmlns="http://www.w3.org/2000/svg">
<path d="M13.6875 7.75C13.651 8.15104 13.4323 8.36979 13.0312 8.40625H8.65625V12.7812C8.61979 13.1823 8.40104 13.401 8 13.4375C7.59896 13.401 7.38021 13.1823 7.34375 12.7812V8.40625H2.96875C2.56771 8.36979 2.34896 8.15104 2.3125 7.75C2.34896 7.34896 2.56771 7.13021 2.96875 7.09375H7.34375V2.71875C7.38021 2.31771 7.59896 2.09896 8 2.0625C8.40104 2.09896 8.61979 2.31771 8.65625 2.71875V7.09375H13.0312C13.4323 7.13021 13.651 7.34896 13.6875 7.75Z" fill="white"/>
</svg>