<svg width="24" height="24" viewBox="0 0 24 24" fill="none" xmlns="http://www.w3.org/2000/svg">
<path d="M19.5 6.25C20.2031 6.27604 20.7891 6.52344 21.2578 6.99219C21.7266 7.46094 21.974 8.04688 22 8.75V18.75C21.974 19.4531 21.7266 20.0391 21.2578 20.5078C20.7891 20.9766 20.2031 21.224 19.5 21.25H4.5C3.79688 21.224 3.21094 20.9766 2.74219 20.5078C2.27344 20.0391 2.02604 19.4531 2 18.75V8.75C2.02604 8.04688 2.27344 7.46094 2.74219 6.99219C3.21094 6.52344 3.79688 6.27604 4.5 6.25H7V4.375C7.02604 3.85417 7.20833 3.41146 7.54688 3.04688C7.91146 2.70833 8.35417 2.52604 8.875 2.5H15.125C15.6458 2.52604 16.0885 2.70833 16.4531 3.04688C16.7917 3.41146 16.974 3.85417 17 4.375V6.25H19.5ZM8.25 4.375V6.25H15.75V4.375C15.724 3.98438 15.5156 3.77604 15.125 3.75H8.875C8.48438 3.77604 8.27604 3.98438 8.25 4.375ZM20.75 18.75V13.75H15.125V16.25C15.099 16.6406 14.8906 16.849 14.5 16.875H9.5C9.10938 16.849 8.90104 16.6406 8.875 16.25V13.75H3.25V18.75C3.25 19.1146 3.36719 19.4141 3.60156 19.6484C3.83594 19.8828 4.13542 20 4.5 20H19.5C19.8646 20 20.1641 19.8828 20.3984 19.6484C20.6328 19.4141 20.75 19.1146 20.75 18.75ZM10.125 15.625H13.875V13.75H10.125V15.625ZM20.75 12.5V8.75C20.75 8.38542 20.6328 8.08594 20.3984 7.85156C20.1641 7.61719 19.8646 7.5 19.5 7.5H4.5C4.13542 7.5 3.83594 7.61719 3.60156 7.85156C3.36719 8.08594 3.25 8.38542 3.25 8.75V12.5H20.75Z" fill="#828282"/>
</svg>