<svg width="16" height="16" viewBox="0 0 16 16" fill="none" xmlns="http://www.w3.org/2000/svg">
<path d="M13.4414 8.625C13.806 8.78906 13.9427 9.07161 13.8516 9.47266C13.4505 10.7852 12.7122 11.8424 11.6367 12.6445C10.5794 13.4466 9.35807 13.8568 7.97266 13.875C6.87891 13.8568 5.8763 13.5833 4.96484 13.0547C4.05339 12.5078 3.3151 11.7786 2.75 10.8672V13.6562C2.71354 14.0573 2.49479 14.276 2.09375 14.3125C1.69271 14.276 1.47396 14.0573 1.4375 13.6562V9.28125C1.47396 8.88021 1.69271 8.66146 2.09375 8.625H6.46875C6.85156 8.66146 7.0612 8.88021 7.09766 9.28125C7.0612 9.68229 6.84245 9.90104 6.44141 9.9375H3.70703C4.1263 10.7396 4.70964 11.3776 5.45703 11.8516C6.20443 12.3073 7.04297 12.5443 7.97266 12.5625C9.06641 12.5443 10.0326 12.2253 10.8711 11.6055C11.7279 10.9674 12.3112 10.1198 12.6211 9.0625C12.7669 8.69792 13.0404 8.55208 13.4414 8.625ZM13.9062 1.1875C14.3073 1.22396 14.526 1.44271 14.5625 1.84375V6.21875C14.526 6.61979 14.3073 6.83854 13.9062 6.875H9.53125C9.13021 6.83854 8.91146 6.61979 8.875 6.21875C8.91146 5.81771 9.13021 5.59896 9.53125 5.5625H12.293C11.8555 4.76042 11.263 4.1224 10.5156 3.64844C9.76823 3.19271 8.92969 2.95573 8 2.9375C6.90625 2.95573 5.9401 3.27474 5.10156 3.89453C4.28125 4.53255 3.70703 5.37109 3.37891 6.41016C3.23307 6.77474 2.95964 6.92057 2.55859 6.84766C2.19401 6.70182 2.04818 6.42839 2.12109 6.02734C2.52214 4.71484 3.26042 3.65755 4.33594 2.85547C5.39323 2.05339 6.61458 1.64323 8 1.625C9.11198 1.64323 10.1237 1.91667 11.0352 2.44531C11.9466 2.99219 12.6849 3.72135 13.25 4.63281V1.84375C13.2865 1.44271 13.5052 1.22396 13.9062 1.1875Z" fill="#F7B401"/>
</svg>