<svg width="24" height="24" viewBox="0 0 24 24" fill="none" xmlns="http://www.w3.org/2000/svg">
<path d="M18.25 13.125C18.224 13.5156 18.0156 13.724 17.625 13.75H11.375C10.9844 13.724 10.776 13.5156 10.75 13.125C10.776 12.7344 10.9844 12.526 11.375 12.5H17.625C18.0156 12.526 18.224 12.7344 18.25 13.125ZM6.375 18.75C5.98438 18.724 5.77604 18.5156 5.75 18.125C5.77604 17.7344 5.98438 17.526 6.375 17.5H12.625C13.0156 17.526 13.224 17.7344 13.25 18.125C13.224 18.5156 13.0156 18.724 12.625 18.75H6.375ZM9.5 13.125C9.47396 13.6458 9.29167 14.0885 8.95312 14.4531C8.58854 14.7917 8.14583 14.974 7.625 15C7.10417 14.974 6.66146 14.7917 6.29688 14.4531C5.95833 14.0885 5.77604 13.6458 5.75 13.125C5.77604 12.6042 5.95833 12.1615 6.29688 11.7969C6.66146 11.4583 7.10417 11.276 7.625 11.25C8.14583 11.276 8.58854 11.4583 8.95312 11.7969C9.29167 12.1615 9.47396 12.6042 9.5 13.125ZM7 13.125C7.02604 13.5156 7.23438 13.724 7.625 13.75C8.01562 13.724 8.22396 13.5156 8.25 13.125C8.22396 12.7344 8.01562 12.526 7.625 12.5C7.23438 12.526 7.02604 12.7344 7 13.125ZM14.5 18.125C14.526 17.6042 14.7083 17.1615 15.0469 16.7969C15.4115 16.4583 15.8542 16.276 16.375 16.25C16.8958 16.276 17.3385 16.4583 17.7031 16.7969C18.0417 17.1615 18.224 17.6042 18.25 18.125C18.224 18.6458 18.0417 19.0885 17.7031 19.4531C17.3385 19.7917 16.8958 19.974 16.375 20C15.8542 19.974 15.4115 19.7917 15.0469 19.4531C14.7083 19.0885 14.526 18.6458 14.5 18.125ZM17 18.125C16.974 17.7344 16.7656 17.526 16.375 17.5C15.9844 17.526 15.776 17.7344 15.75 18.125C15.776 18.5156 15.9844 18.724 16.375 18.75C16.7656 18.724 16.974 18.5156 17 18.125ZM7.625 2.5C8.01562 2.52604 8.22396 2.73438 8.25 3.125V5H15.75V3.125C15.776 2.73438 15.9844 2.52604 16.375 2.5C16.7656 2.52604 16.974 2.73438 17 3.125V5H18.25C18.9531 5.02604 19.5391 5.27344 20.0078 5.74219C20.4766 6.21094 20.724 6.79688 20.75 7.5V20C20.724 20.7031 20.4766 21.2891 20.0078 21.7578C19.5391 22.2266 18.9531 22.474 18.25 22.5H5.75C5.04688 22.474 4.46094 22.2266 3.99219 21.7578C3.52344 21.2891 3.27604 20.7031 3.25 20V7.5C3.27604 6.79688 3.52344 6.21094 3.99219 5.74219C4.46094 5.27344 5.04688 5.02604 5.75 5H7V3.125C7.02604 2.73438 7.23438 2.52604 7.625 2.5ZM19.5 10H4.5V20C4.5 20.3646 4.61719 20.6641 4.85156 20.8984C5.08594 21.1328 5.38542 21.25 5.75 21.25H18.25C18.6146 21.25 18.9141 21.1328 19.1484 20.8984C19.3828 20.6641 19.5 20.3646 19.5 20V10ZM18.25 6.25H5.75C5.38542 6.25 5.08594 6.36719 4.85156 6.60156C4.61719 6.83594 4.5 7.13542 4.5 7.5V8.75H19.5V7.5C19.5 7.13542 19.3828 6.83594 19.1484 6.60156C18.9141 6.36719 18.6146 6.25 18.25 6.25Z" fill="#828282"/>
</svg>