<svg width="24" height="24" viewBox="0 0 24 24" fill="none" xmlns="http://www.w3.org/2000/svg">
<path d="M8.5625 12.4609C8.58854 11.4974 8.92708 10.6901 9.57812 10.0391C10.2292 9.38802 11.0365 9.04948 12 9.02344C12.9635 9.04948 13.7708 9.38802 14.4219 10.0391C15.0729 10.6901 15.4115 11.4974 15.4375 12.4609C15.4115 13.4505 15.0729 14.2708 14.4219 14.9219C13.7708 15.5729 12.9635 15.9115 12 15.9375C11.0365 15.9115 10.2292 15.5729 9.57812 14.9219C8.92708 14.2708 8.58854 13.4505 8.5625 12.4609ZM12 10.2734C11.375 10.2995 10.8542 10.5208 10.4375 10.9375C10.0469 11.3542 9.83854 11.862 9.8125 12.4609C9.83854 13.0859 10.0469 13.6068 10.4375 14.0234C10.8542 14.4401 11.375 14.6484 12 14.6484C12.625 14.6484 13.1458 14.4401 13.5625 14.0234C13.9531 13.6068 14.1615 13.0859 14.1875 12.4609C14.1615 11.862 13.9531 11.3542 13.5625 10.9375C13.1458 10.5208 12.625 10.2995 12 10.2734ZM4.57812 11.5234L2.97656 10.0781C2.53385 9.60938 2.45573 9.08854 2.74219 8.51562L3.91406 6.48438C4.27865 5.9375 4.77344 5.74219 5.39844 5.89844L7.42969 6.5625C7.95052 6.14583 8.52344 5.80729 9.14844 5.54688L9.61719 3.47656C9.77344 2.8776 10.1771 2.55208 10.8281 2.5H13.1719C13.8229 2.55208 14.2396 2.8776 14.4219 3.47656L14.8516 5.54688C15.4505 5.80729 16.0234 6.14583 16.5703 6.5625L18.6016 5.89844C19.2266 5.74219 19.7214 5.9375 20.0859 6.48438L21.2578 8.51562C21.5443 9.08854 21.4661 9.60938 21.0234 10.0781L19.4219 11.5234C19.474 11.8359 19.5 12.1484 19.5 12.4609C19.5 12.8255 19.474 13.1641 19.4219 13.4766L21.0234 14.9219C21.4661 15.3906 21.5443 15.9115 21.2578 16.4844L20.0859 18.5156C19.7214 19.0625 19.2266 19.2578 18.6016 19.1016L16.5703 18.4375C16.0234 18.8542 15.4505 19.1927 14.8516 19.4531L14.4219 21.5234C14.2396 22.1224 13.8229 22.4479 13.1719 22.5H10.8281C10.1771 22.4479 9.77344 22.1224 9.61719 21.5234L9.14844 19.4531C8.52344 19.1927 7.95052 18.8542 7.42969 18.4375L5.39844 19.1016C4.77344 19.2578 4.27865 19.0625 3.91406 18.5156L2.74219 16.4844C2.45573 15.9115 2.53385 15.3906 2.97656 14.9219L4.57812 13.4766C4.52604 13.1641 4.5 12.8255 4.5 12.4609C4.5 12.1484 4.52604 11.8359 4.57812 11.5234ZM8.17188 7.53906L7.66406 7.96875L5.00781 7.10938L3.83594 9.14062L5.90625 11.0156L5.78906 11.6797C5.76302 11.9401 5.75 12.2005 5.75 12.4609C5.75 12.7734 5.76302 13.0599 5.78906 13.3203L5.90625 13.9844L3.83594 15.8594L5.00781 17.8906L7.66406 17.0703L8.17188 17.4609C8.61458 17.7995 9.09635 18.0599 9.61719 18.2422L10.2422 18.5156L10.8281 21.25H13.1719L13.7969 18.5156L14.3438 18.2422C14.8906 18.0599 15.3854 17.7995 15.8281 17.4609L16.3359 17.0703L18.9922 17.8906L20.1641 15.8594L18.0938 13.9844L18.2109 13.3203C18.237 13.0599 18.25 12.7865 18.25 12.5C18.25 12.2135 18.237 11.9401 18.2109 11.6797L18.0938 11.0156L20.1641 9.14062L18.9922 7.10938L16.3359 7.96875L15.8281 7.53906C15.3854 7.20052 14.8906 6.92708 14.3438 6.71875L13.7969 6.48438L13.1719 3.75H10.8281L10.2422 6.48438L9.61719 6.71875C9.09635 6.92708 8.61458 7.20052 8.17188 7.53906Z" fill="#828282"/>
</svg>
