<svg width="21" height="20" viewBox="0 0 21 20" fill="none" xmlns="http://www.w3.org/2000/svg">
<path d="M14.5 10C14.4792 11.125 14.0938 12.0729 13.3438 12.8438C12.5729 13.5938 11.625 13.9792 10.5 14C9.375 13.9792 8.42708 13.5938 7.65625 12.8438C6.90625 12.0729 6.52083 11.125 6.5 10C6.52083 8.875 6.90625 7.92708 7.65625 7.15625C8.42708 6.40625 9.375 6.02083 10.5 6C11.625 6.02083 12.5729 6.40625 13.3438 7.15625C14.0938 7.92708 14.4792 8.875 14.5 10ZM10.5 7C9.64583 7.02083 8.9375 7.3125 8.375 7.875C7.8125 8.4375 7.52083 9.14583 7.5 10C7.52083 10.8542 7.8125 11.5625 8.375 12.125C8.9375 12.6875 9.64583 12.9792 10.5 13C11.3542 12.9792 12.0625 12.6875 12.625 12.125C13.1875 11.5625 13.4792 10.8542 13.5 10C13.4792 9.14583 13.1875 8.4375 12.625 7.875C12.0625 7.3125 11.3542 7.02083 10.5 7ZM16.5312 5.53125C17.2604 6.21875 17.8646 6.92708 18.3438 7.65625C18.8229 8.38542 19.1875 9.04167 19.4375 9.625C19.5208 9.875 19.5208 10.125 19.4375 10.375C19.1875 10.9583 18.8229 11.6146 18.3438 12.3438C17.8646 13.0521 17.2604 13.7604 16.5312 14.4688C15.7812 15.1771 14.9062 15.7708 13.9062 16.25C12.9062 16.7292 11.7708 16.9792 10.5 17C9.22917 16.9792 8.09375 16.7292 7.09375 16.25C6.09375 15.7708 5.21875 15.1771 4.46875 14.4688C3.73958 13.7604 3.13542 13.0521 2.65625 12.3438C2.17708 11.6146 1.8125 10.9583 1.5625 10.375C1.47917 10.125 1.47917 9.875 1.5625 9.625C1.8125 9.04167 2.17708 8.38542 2.65625 7.65625C3.13542 6.92708 3.73958 6.21875 4.46875 5.53125C5.21875 4.82292 6.09375 4.22917 7.09375 3.75C8.09375 3.27083 9.22917 3.02083 10.5 3C11.7708 3.02083 12.9062 3.27083 13.9062 3.75C14.9062 4.22917 15.7812 4.82292 16.5312 5.53125ZM2.5 10C2.70833 10.5208 3.03125 11.1146 3.46875 11.7812C3.92708 12.4479 4.48958 13.1042 5.15625 13.75C5.84375 14.3958 6.625 14.9271 7.5 15.3438C8.39583 15.7604 9.39583 15.9792 10.5 16C11.6042 15.9792 12.6042 15.7604 13.5 15.3438C14.375 14.9271 15.1562 14.3958 15.8438 13.75C16.5104 13.1042 17.0729 12.4479 17.5312 11.7812C17.9688 11.1146 18.2917 10.5208 18.5 10C18.2917 9.47917 17.9688 8.875 17.5312 8.1875C17.0729 7.52083 16.5104 6.875 15.8438 6.25C15.1562 5.60417 14.375 5.07292 13.5 4.65625C12.6042 4.23958 11.6042 4.02083 10.5 4C9.39583 4.02083 8.39583 4.23958 7.5 4.65625C6.625 5.07292 5.84375 5.60417 5.15625 6.25C4.48958 6.875 3.92708 7.52083 3.46875 8.1875C3.03125 8.875 2.70833 9.47917 2.5 10Z" fill="#333333"/>
</svg>