<svg width="56" height="56" viewBox="0 0 56 56" fill="none" xmlns="http://www.w3.org/2000/svg">
  <g clip-path="url(#clip0_258_3210)">
  <path d="M43.7498 24.5005C50.5154 24.5005 56.0001 19.0159 56.0001 12.2503C56.0001 5.48463 50.5154 0 43.7498 0C36.9841 0 31.4995 5.48463 31.4995 12.2503C31.4995 19.0159 36.9841 24.5005 43.7498 24.5005Z" fill="white"/>
  <path d="M12.2503 56.0001C19.0159 56.0001 24.5005 50.5154 24.5005 43.7498C24.5005 36.9841 19.0159 31.4995 12.2503 31.4995C5.48463 31.4995 0 36.9841 0 43.7498C0 50.5154 5.48463 56.0001 12.2503 56.0001Z" fill="white"/>
  <path d="M56 40.9229C56 49.2371 49.2371 56 40.9229 56H20.9996L21.0267 55.9691V55.9652C22.6447 54.853 24.0015 53.3908 24.9976 51.6916H40.9229C46.8609 51.6916 51.6916 46.8619 51.6916 40.9229C51.6916 34.9839 46.8609 30.1542 40.9229 30.1542H15.0771C6.76294 30.1542 0 23.3913 0 15.0771C0 6.76294 6.76294 0 15.0771 0H35.0004L34.9733 0.0348156C33.3553 1.14698 31.9985 2.60924 31.0024 4.30844H15.0771C9.13911 4.30844 4.30844 9.13911 4.30844 15.0771C4.30844 21.0151 9.13814 25.8458 15.0771 25.8458H40.9229C49.2371 25.8458 56 32.6087 56 40.9229Z" fill="white"/>
  </g>
  <defs>
  <clipPath id="clip0_258_3210">
  <rect width="56" height="56" fill="white"/>
  </clipPath>
  </defs>
  </svg>
