<svg width="26" height="24" viewBox="0 0 26 24" fill="none" xmlns="http://www.w3.org/2000/svg">
<path d="M6.75 15C5.68229 14.974 4.79688 14.6094 4.09375 13.9062C3.39062 13.2031 3.02604 12.3177 3 11.25C3.02604 10.1823 3.39062 9.29688 4.09375 8.59375C4.79688 7.89062 5.68229 7.52604 6.75 7.5C7.81771 7.52604 8.70312 7.89062 9.40625 8.59375C10.1094 9.29688 10.474 10.1823 10.5 11.25C10.474 12.3177 10.1094 13.2031 9.40625 13.9062C8.70312 14.6094 7.81771 14.974 6.75 15ZM6.75 8.75C6.04688 8.77604 5.46094 9.02344 4.99219 9.49219C4.52344 9.96094 4.27604 10.5469 4.25 11.25C4.27604 11.9531 4.52344 12.5391 4.99219 13.0078C5.46094 13.4766 6.04688 13.724 6.75 13.75C7.45312 13.724 8.03906 13.4766 8.50781 13.0078C8.97656 12.5391 9.22396 11.9531 9.25 11.25C9.22396 10.5469 8.97656 9.96094 8.50781 9.49219C8.03906 9.02344 7.45312 8.77604 6.75 8.75ZM8 16.25C9.40625 16.276 10.5911 16.7578 11.5547 17.6953C12.4922 18.6589 12.974 19.8438 13 21.25C13 21.6146 12.8828 21.9141 12.6484 22.1484C12.4141 22.3828 12.1146 22.5 11.75 22.5H1.75C1.38542 22.5 1.08594 22.3828 0.851562 22.1484C0.617188 21.9141 0.5 21.6146 0.5 21.25C0.526042 19.8438 1.00781 18.6589 1.94531 17.6953C2.90885 16.7578 4.09375 16.276 5.5 16.25H8ZM1.75 21.25H11.75C11.724 20.1823 11.3594 19.2969 10.6562 18.5938C9.95312 17.8906 9.06771 17.526 8 17.5H5.5C4.43229 17.526 3.54688 17.8906 2.84375 18.5938C2.14062 19.2969 1.77604 20.1823 1.75 21.25ZM23.625 2.5C24.1458 2.52604 24.5885 2.70833 24.9531 3.04688C25.2917 3.41146 25.474 3.85417 25.5 4.375V16.875C25.474 17.3958 25.2917 17.8385 24.9531 18.2031C24.5885 18.5417 24.1458 18.724 23.625 18.75H14.25C13.8594 18.724 13.651 18.5156 13.625 18.125C13.651 17.7344 13.8594 17.526 14.25 17.5H15.5V15.625C15.526 15.1042 15.7083 14.6615 16.0469 14.2969C16.4115 13.9583 16.8542 13.776 17.375 13.75H21.125C21.6458 13.776 22.0885 13.9583 22.4531 14.2969C22.7917 14.6615 22.974 15.1042 23 15.625V17.5H23.625C24.0156 17.474 24.224 17.2656 24.25 16.875V4.375C24.224 3.98438 24.0156 3.77604 23.625 3.75H8.625C8.23438 3.77604 8.02604 3.98438 8 4.375V5.625C7.97396 6.01562 7.76562 6.22396 7.375 6.25C6.98438 6.22396 6.77604 6.01562 6.75 5.625V4.375C6.77604 3.85417 6.95833 3.41146 7.29688 3.04688C7.66146 2.70833 8.10417 2.52604 8.625 2.5H23.625ZM21.75 17.5V15.625C21.724 15.2344 21.5156 15.026 21.125 15H17.375C16.9844 15.026 16.776 15.2344 16.75 15.625V17.5H21.75Z" fill="#828282"/>
</svg>