<svg width="21" height="20" viewBox="0 0 21 20" fill="none" xmlns="http://www.w3.org/2000/svg">
<path d="M20.3125 17.0938C20.5417 17.3021 20.5729 17.5417 20.4062 17.8125C20.1771 18.0417 19.9375 18.0729 19.6875 17.9062L0.6875 2.90625C0.458333 2.67708 0.427083 2.4375 0.59375 2.1875C0.822917 1.95833 1.0625 1.92708 1.3125 2.09375L20.3125 17.0938ZM19.4375 10.375C19.1042 11.1875 18.5417 12.1146 17.75 13.1562L16.9688 12.5625C17.6979 11.5833 18.2083 10.7292 18.5 10C18.2917 9.47917 17.9688 8.875 17.5312 8.1875C17.0729 7.52083 16.5104 6.875 15.8438 6.25C15.1562 5.60417 14.375 5.07292 13.5 4.65625C12.6042 4.23958 11.6042 4.02083 10.5 4C9.25 4.02083 8.13542 4.29167 7.15625 4.8125L6.3125 4.15625C7.5 3.40625 8.89583 3.01042 10.5 2.96875C11.7708 2.98958 12.9062 3.23958 13.9062 3.71875C14.9062 4.21875 15.7812 4.82292 16.5312 5.53125C17.2604 6.21875 17.8646 6.92708 18.3438 7.65625C18.8229 8.38542 19.1875 9.04167 19.4375 9.625C19.5208 9.875 19.5208 10.125 19.4375 10.375ZM3.25 6.84375L4.0625 7.46875C3.3125 8.42708 2.78125 9.26042 2.46875 9.96875C2.69792 10.4896 3.03125 11.0938 3.46875 11.7812C3.92708 12.4479 4.48958 13.1042 5.15625 13.75C5.84375 14.3958 6.625 14.9271 7.5 15.3438C8.39583 15.7604 9.38542 15.9792 10.4688 16C11.7396 15.9792 12.8646 15.7083 13.8438 15.1875L14.6875 15.8438C13.4792 16.5729 12.0729 16.9583 10.4688 17C9.21875 16.9792 8.09375 16.7292 7.09375 16.25C6.09375 15.7708 5.21875 15.1771 4.46875 14.4688C3.73958 13.7604 3.13542 13.0521 2.65625 12.3438C2.17708 11.6146 1.8125 10.9583 1.5625 10.375C1.47917 10.125 1.47917 9.875 1.5625 9.625C1.89583 8.8125 2.45833 7.88542 3.25 6.84375ZM6.46875 9.96875C6.46875 9.86458 6.47917 9.73958 6.5 9.59375C6.52083 9.53125 6.53125 9.47917 6.53125 9.4375L7.5 10.1875C7.5625 11 7.875 11.6667 8.4375 12.1875C8.97917 12.7083 9.65625 12.9792 10.4688 13C10.6771 13 10.8646 12.9896 11.0312 12.9688L11.9688 13.7188C11.5104 13.9062 11.0104 14 10.4688 14C9.34375 13.9792 8.40625 13.5833 7.65625 12.8125C6.90625 12.0625 6.51042 11.1146 6.46875 9.96875ZM14.5 9.96875C14.5 10.1979 14.4896 10.4062 14.4688 10.5938L13.5 9.8125C13.4375 9 13.125 8.33333 12.5625 7.8125C12 7.27083 11.3021 6.98958 10.4688 6.96875C10.3646 6.96875 10.25 6.98958 10.125 7.03125C10.0833 7.03125 10.0417 7.03125 10 7.03125L9.03125 6.28125C9.48958 6.09375 9.96875 5.98958 10.4688 5.96875C11.6146 6.01042 12.5625 6.40625 13.3125 7.15625C14.0833 7.90625 14.4792 8.84375 14.5 9.96875Z" fill="#333333"/>
</svg>