<svg width="21" height="20" viewBox="0 0 21 20" fill="none" xmlns="http://www.w3.org/2000/svg">
<path d="M10.5 10C9.375 9.97917 8.42708 9.59375 7.65625 8.84375C6.90625 8.07292 6.52083 7.125 6.5 6C6.52083 4.875 6.90625 3.92708 7.65625 3.15625C8.42708 2.40625 9.375 2.02083 10.5 2C11.625 2.02083 12.5729 2.40625 13.3438 3.15625C14.0938 3.92708 14.4792 4.875 14.5 6C14.4792 7.125 14.0938 8.07292 13.3438 8.84375C12.5729 9.59375 11.625 9.97917 10.5 10ZM10.5 3C9.64583 3.02083 8.9375 3.3125 8.375 3.875C7.8125 4.4375 7.52083 5.14583 7.5 6C7.52083 6.85417 7.8125 7.5625 8.375 8.125C8.9375 8.6875 9.64583 8.97917 10.5 9C11.3542 8.97917 12.0625 8.6875 12.625 8.125C13.1875 7.5625 13.4792 6.85417 13.5 6C13.4792 5.14583 13.1875 4.4375 12.625 3.875C12.0625 3.3125 11.3542 3.02083 10.5 3ZM12.0938 11.5C13.6146 11.5417 14.8854 12.0729 15.9062 13.0938C16.9271 14.1146 17.4583 15.3854 17.5 16.9062C17.5 17.2188 17.3958 17.4792 17.1875 17.6875C16.9792 17.8958 16.7188 18 16.4062 18H4.59375C4.28125 18 4.02083 17.8958 3.8125 17.6875C3.60417 17.4792 3.5 17.2188 3.5 16.9062C3.54167 15.3854 4.07292 14.1146 5.09375 13.0938C6.11458 12.0729 7.38542 11.5417 8.90625 11.5H12.0938ZM16.4062 17C16.4688 17 16.5 16.9688 16.5 16.9062C16.4583 15.6562 16.0312 14.6146 15.2188 13.7812C14.3854 12.9688 13.3438 12.5417 12.0938 12.5H8.90625C7.65625 12.5417 6.61458 12.9688 5.78125 13.7812C4.96875 14.6146 4.54167 15.6562 4.5 16.9062C4.5 16.9688 4.53125 17 4.59375 17H16.4062Z" fill="#828282"/>
</svg>