<svg width="20" height="20" viewBox="0 0 20 20" fill="none" xmlns="http://www.w3.org/2000/svg">
<path fill-rule="evenodd" clip-rule="evenodd" d="M7.83436 2.50283C8.79643 0.835239 11.2032 0.835238 12.1653 2.50283L18.2939 13.1257C19.2554 14.7924 18.0526 16.8751 16.1284 16.8751H3.87122C1.94707 16.8751 0.744218 14.7924 1.70576 13.1257L7.83436 2.50283ZM10 6.875C10.3452 6.875 10.625 7.15482 10.625 7.5V10.625C10.625 10.9702 10.3452 11.25 10 11.25C9.65482 11.25 9.375 10.9702 9.375 10.625V7.5C9.375 7.15482 9.65482 6.875 10 6.875ZM10 13.75C10.3452 13.75 10.625 13.4702 10.625 13.125C10.625 12.7798 10.3452 12.5 10 12.5C9.65482 12.5 9.375 12.7798 9.375 13.125C9.375 13.4702 9.65482 13.75 10 13.75Z" fill="white"/>
</svg>
