<svg width="18" height="21" viewBox="0 0 18 21" fill="none" xmlns="http://www.w3.org/2000/svg">
<path d="M6.5 1.75V3H11.5V1.75C11.5 1.38542 11.6172 1.08594 11.8516 0.851562C12.0859 0.617188 12.3854 0.5 12.75 0.5C13.1146 0.5 13.4141 0.617188 13.6484 0.851562C13.8828 1.08594 14 1.38542 14 1.75V3H15.875C16.3958 3.02604 16.8385 3.20833 17.2031 3.54688C17.5417 3.91146 17.724 4.35417 17.75 4.875V6.75H0.25V4.875C0.276042 4.35417 0.458333 3.91146 0.796875 3.54688C1.16146 3.20833 1.60417 3.02604 2.125 3H4V1.75C4 1.38542 4.11719 1.08594 4.35156 0.851562C4.58594 0.617188 4.88542 0.5 5.25 0.5C5.61458 0.5 5.91406 0.617188 6.14844 0.851562C6.38281 1.08594 6.5 1.38542 6.5 1.75ZM0.25 8H17.75V18.625C17.724 19.1458 17.5417 19.5885 17.2031 19.9531C16.8385 20.2917 16.3958 20.474 15.875 20.5H2.125C1.60417 20.474 1.16146 20.2917 0.796875 19.9531C0.458333 19.5885 0.276042 19.1458 0.25 18.625V8ZM2.75 12.375C2.77604 12.7656 2.98438 12.974 3.375 13H4.625C5.01562 12.974 5.22396 12.7656 5.25 12.375V11.125C5.22396 10.7344 5.01562 10.526 4.625 10.5H3.375C2.98438 10.526 2.77604 10.7344 2.75 11.125V12.375ZM7.75 12.375C7.77604 12.7656 7.98438 12.974 8.375 13H9.625C10.0156 12.974 10.224 12.7656 10.25 12.375V11.125C10.224 10.7344 10.0156 10.526 9.625 10.5H8.375C7.98438 10.526 7.77604 10.7344 7.75 11.125V12.375ZM13.375 10.5C12.9844 10.526 12.776 10.7344 12.75 11.125V12.375C12.776 12.7656 12.9844 12.974 13.375 13H14.625C15.0156 12.974 15.224 12.7656 15.25 12.375V11.125C15.224 10.7344 15.0156 10.526 14.625 10.5H13.375ZM2.75 17.375C2.77604 17.7656 2.98438 17.974 3.375 18H4.625C5.01562 17.974 5.22396 17.7656 5.25 17.375V16.125C5.22396 15.7344 5.01562 15.526 4.625 15.5H3.375C2.98438 15.526 2.77604 15.7344 2.75 16.125V17.375ZM8.375 15.5C7.98438 15.526 7.77604 15.7344 7.75 16.125V17.375C7.77604 17.7656 7.98438 17.974 8.375 18H9.625C10.0156 17.974 10.224 17.7656 10.25 17.375V16.125C10.224 15.7344 10.0156 15.526 9.625 15.5H8.375ZM12.75 17.375C12.776 17.7656 12.9844 17.974 13.375 18H14.625C15.0156 17.974 15.224 17.7656 15.25 17.375V16.125C15.224 15.7344 15.0156 15.526 14.625 15.5H13.375C12.9844 15.526 12.776 15.7344 12.75 16.125V17.375Z" fill="#F7B401"/>
</svg>
